<?xml version="1.0" encoding="UTF-8"?>
<svg viewBox="0 0 107 38" xmlns="http://www.w3.org/2000/svg">
<path d="m65.776 24.425c-0.0165 0.0415-0.0305 0.0849-0.0504 0.1254-0.214 0.4357-0.4282 0.8712-0.6444 1.3055-0.0377 0.0757-0.0791 0.1513-0.13 0.2181-0.1187 0.1559-0.3913 0.2446-0.5688 0.184-0.0324-0.0109-0.052-0.0605-0.0775-0.0923l0.0355-0.0368 0.1775-2e-4c0.2158-0.0048 0.3882-0.1331 0.4353-0.3399 0.0116-0.0511-0.0117-0.1183-0.0371-0.1686-0.1718-0.3414-0.3488-0.6802-0.5237-1.0199-0.0275-0.0535-0.0528-0.1081-0.0827-0.1696 0.0989-0.0488 0.1573-0.0221 0.2029 0.0692 0.1438 0.2877 0.2913 0.5734 0.4379 0.8595 0.0299 0.0584 0.0619 0.1157 0.1035 0.1931 0.0342-0.0541 0.0624-0.0907 0.0823-0.1313 0.1468-0.2996 0.2936-0.5993 0.437-0.9007 0.0408-0.086 0.086-0.147 0.2027-0.0955zm-10.761-19.378c2.5568 0.0325 4.6891 1.7801 5.2688 4.2984 0.0862 0.37495 0.133 0.75534 0.1329 1.1412-1e-4 1.1338 7e-3 2.2678-0.0013 3.4015-0.0192 2.6237-1.8887 4.8883-4.4317 5.3646-0.3348 0.0627-0.6794 0.0983-1.0196 0.0997-2.0546 9e-3 -4.1093 0.0049-6.1639 0.0031-0.0887-1e-4 -0.1819-0.0076-0.2649-0.0359-0.1814-0.062-0.3-0.2496-0.2951-0.439 5e-3 -0.1988 0.1386-0.3807 0.3308-0.4311 0.0857-0.0224 0.178-0.0266 0.2673-0.0266 2.0305-0.0015 4.0612-0.0036 6.0918 0 0.8758 0.0017 1.6919-0.2145 2.4276-0.6947 1.2792-0.8349 1.9951-2.0257 2.1288-3.5683 0.0147-0.1697 0.0191-0.3408 0.0194-0.5113 0.0016-1.018 0.0034-2.0361-2e-4 -3.0541-0.0029-0.80763-0.1834-1.573-0.585-2.2731-0.7442-1.2973-1.853-2.0656-3.3143-2.3014-0.2124-0.03435-0.4306-0.0439-0.6463-0.04454-1.4659-0.00516-2.9317-0.0073-4.3976-0.00559-2.2207 0.00258-4.083 1.5737-4.4822 3.7904-0.0558 0.30976-0.0728 0.63036-0.0736 0.94586l-0.0038 3.6302 5e-4 11.293c0 0.073 0.0021 0.1465-0.0042 0.2192-0.0215 0.2456-0.2212 0.4265-0.4609 0.4215-0.2319-5e-3 -0.4228-0.1856-0.4438-0.422-0.0044-0.0484-0.0027-0.0975-0.0027-0.1462-1e-4 -5.0417 0.0037-10.083-0.0017-15.124-0.0026-2.3931 1.5276-4.5386 3.7894-5.277 0.5301-0.17303 1.0744-0.26406 1.6299-0.26481 1.5018-0.00193 3.0038-0.00842 4.5056 0.01068zm-5.5661 19.327c0.3529 0.0029 0.5557 0.2076 0.5857 0.5609 0.0449 0.5309-0.187 0.8096-0.7127 0.8296-0.2074 0.0078-0.4162-0.0245-0.6545-0.0407v0.4939h-0.1367v-1.7921l0.0348-0.0148c0.0052-0.0017 0.0096-0.0021 0.0124-1e-4 0.103 0.0729 0.2085 0.0369 0.3181 0.0202 0.1832-0.028 0.3686-0.0584 0.5529-0.0569zm26.626 0.0423c0.2362 0.0603 0.387 0.2141 0.4266 0.4647 0.0115 0.0717 0.0192 0.1451 0.0179 0.2176-7e-3 0.3799-0.1981 0.6006-0.5697 0.6558-0.1006 0.0148-0.2034 0.0147-0.3052 0.0216l-0.0024 0.0106-0.2971-0.0379c-0.0492-0.0075-0.0981-0.0167-0.1461-0.029-0.2453-0.0628-0.392-0.2317-0.4252-0.4871-0.0139-0.1076-0.0137-0.2202 8e-4 -0.3276 0.0343-0.2553 0.1821-0.423 0.4267-0.4871 0.2894-0.0756 0.5839-0.0754 0.8737-0.0016zm-24.863-0.0618c0.1295 0.0208 0.262 0.0305 0.3878 0.0648 0.2141 0.0588 0.3596 0.2044 0.3938 0.428 0.0225 0.1473 0.0215 0.3041-0.0022 0.4513-0.0359 0.2234-0.1823 0.3661-0.397 0.4251-0.2591 0.071-0.5221 0.0709-0.7814 0.0022-0.2533-0.067-0.3948-0.2394-0.4255-0.5041-0.0021-0.0181-0.0049-0.0362-0.0066-0.0543-0.0496-0.4848 0.1873-0.7673 0.6672-0.7945 0.0536-0.0032 0.1077-5e-4 0.1616-5e-4l0.0023-0.018zm7.4495 0.0171c0.4458 0.0211 0.6511 0.2528 0.6259 0.7358h-1.3173c-0.0308 0.294 0.0998 0.4801 0.3786 0.5063 0.2072 0.0194 0.4184-0.0038 0.6277-0.0124 0.0765-0.0031 0.1525-0.0185 0.233-0.0289 0.0302 0.0709 0.0248 0.1182-0.0462 0.1318-0.3078 0.0593-0.6183 0.1033-0.9293 0.039-0.2187-0.0451-0.3598-0.1906-0.412-0.4118-0.022-0.0937-0.0337-0.1927-0.0315-0.289 9e-3 -0.4038 0.2404-0.6446 0.6372-0.6696 0.0776-0.0048 0.156-0.0048 0.2339-0.0012zm-2.901 9e-4c0.4353 0.0242 0.6328 0.2513 0.6107 0.7326h-1.3134c-0.033 0.2371 0.0436 0.4026 0.2345 0.4689 0.1166 0.0403 0.2461 0.0545 0.3702 0.0565 0.1431 0.0023 0.2865-0.0217 0.4298-0.0349 0.0698-0.0064 0.1396-0.0142 0.2019-0.0207 0.0412 0.0915-1e-4 0.1225-0.0599 0.1336-0.2902 0.0536-0.5831 0.0927-0.8767 0.0435-0.2499-0.0417-0.4073-0.198-0.458-0.4525-0.0177-0.0887-0.0297-0.1815-0.025-0.2715 0.0217-0.407 0.2504-0.6347 0.652-0.6561 0.0779-4e-3 0.1562-0.0038 0.2339 6e-4zm18.746 0.016v0.2693l-0.4682-3e-4c-0.0459 0.0012-0.0915 0.0041-0.1368 0.01-0.2221 0.0292-0.3315 0.1853-0.3218 0.4294 0.01 0.2525 0.1191 0.3769 0.3602 0.3852 0.1369 0.0048 0.2746-0.015 0.412-0.0259 0.0577-0.0046 0.1152-0.0146 0.1841-0.0236v0.2537c-0.2836 0.0747-0.5676 0.1142-0.8549 0.0671-0.2259-0.0372-0.3888-0.1723-0.4339-0.4058-0.0282-0.1465-0.0389-0.3039-0.0186-0.4508 0.0346-0.2511 0.1912-0.4148 0.4335-0.4826 0.2767-0.0775 0.556-0.0429 0.8444-0.0257zm6.4445 0.0192c0.2877 0.0575 0.4153 0.2221 0.4465 0.5184 7e-3 0.0654 0.0093 0.1313 0.0157 0.2263h-1.2283c-0.0166 0.1784 0.0427 0.2829 0.2075 0.3131 0.1514 0.0276 0.3096 0.0288 0.4643 0.0242 0.1549-0.0047 0.3093-0.031 0.4786-0.0495v0.2441c-0.3494 0.0725-0.6995 0.119-1.0535 0.0678-0.2652-0.0385-0.4266-0.2112-0.4762-0.4786-0.0122-0.0657-0.0225-0.1329-0.0226-0.1992-7e-4 -0.4103 0.229-0.6708 0.6319-0.6958 0.1778-0.0111 0.362-0.0056 0.5361 0.0292zm3.3609-0.3942v0.3884h0.5174v0.2626h-0.5031c0 0.2178-0.0126 0.4109 0.0039 0.6015 0.014 0.1598 0.0946 0.2185 0.2549 0.224 0.0825 0.0028 0.1656-0.0076 0.2598-0.0127v0.2417c-0.1764 0.0608-0.3547 0.0669-0.5322 0.0357-0.1608-0.0281-0.2712-0.132-0.315-0.2907-0.0268-0.098-0.0354-0.2029-0.0397-0.3053-0.0064-0.1513-0.0016-0.3032-0.0016-0.4757-0.0932-0.0081-0.1634-0.0143-0.2489-0.0217v-0.2404c0.0736-0.0093 0.1536-0.0192 0.2427-0.0304 0.0166-0.1245 0.0326-0.2438 0.0505-0.377h0.3113zm-14.112 0.3645c0.0996 0.0031 0.2015 0.0322 0.2965 0.0664 0.1481 0.0532 0.2461 0.1708 0.2525 0.3268 0.0128 0.3148 0.0038 0.6303 0.0038 0.9547-0.107-0.0023-0.2015 0.0407-0.2985-0.0365-0.0336-0.0267-0.1128 0.0049-0.1711 0.0111-0.2081 0.0223-0.416 0.0493-0.6246 0.0653-0.0635 0.0048-0.1315-0.0131-0.1934-0.0333-0.1597-0.0521-0.2457-0.1665-0.2561-0.3378-0.0115-0.1917 0.0577-0.335 0.2238-0.3965 0.116-0.0431 0.2441-0.0627 0.3681-0.0701 0.1907-0.0112 0.3825-0.0029 0.5733-0.0029 0.0184-0.143-0.0129-0.2123-0.1354-0.2489-0.0909-0.027-0.1884-0.0395-0.2835-0.0431-0.1732-0.0066-0.3468-0.0018-0.5361-0.0018v-0.2232c0.024-0.0076 0.051-0.0235 0.0786-0.0242 0.234-0.0046 0.4683-0.0134 0.7021-6e-3zm-7.4767-0.5307v0.6226c0.1564-0.0279 0.2835-0.0582 0.4124-0.0718 0.1484-0.0154 0.2993-0.0307 0.4472-0.02 0.2801 0.02 0.4613 0.2021 0.5066 0.4823 0.091 0.5637-0.1589 0.8852-0.7187 0.9054-0.1658 0.0059-0.3329-0.0272-0.4996-0.0413-0.0843-0.0072-0.169-0.0122-0.2789-0.02-0.0023-0.0247-0.0088-0.0602-0.0088-0.0957l-1e-4 -1.6917c0.0039-0.054 0.0267-0.0957 0.1399-0.0698zm24.881 0.5736c0.1764 0.049 0.3014 0.1701 0.3092 0.3607 0.0127 0.3085 0.0034 0.618 0.0034 0.9469-0.1153-0.0036-0.2139 0.0384-0.3072-0.0453-0.0264-0.0236-0.1017 0.0093-0.1547 0.0152-0.2136 0.0234-0.4269 0.0515-0.6411 0.0663-0.0688 0.0048-0.1431-0.0167-0.2094-0.0418-0.1501-0.0567-0.2247-0.1743-0.2331-0.3356-0.0088-0.1664 0.0459-0.3071 0.1991-0.3764 0.1013-0.0458 0.2171-0.071 0.3284-0.0798 0.1607-0.0127 0.3234-2e-3 0.4851-0.0013l0.1575 1e-4c0.0112-0.1609-0.025-0.2303-0.161-0.2606-0.1158-0.026-0.237-0.0321-0.3562-0.0374-0.1373-0.0059-0.2749-0.0013-0.4387-0.0013-0.0031-0.0607-0.0072-0.1399-0.0125-0.2411 0.357-0.015 0.696-0.0617 1.0312 0.0314zm-26.466-0.5676v1.8595c-0.0165 0.0073-0.0239 0.0134-0.0272 0.0116-0.1549-0.0826-0.3059-0.0082-0.4591 0.0082-0.1601 0.0173-0.3222 0.0375-0.4822 0.0299-0.2801-0.0134-0.4526-0.1731-0.515-0.4479-0.0095-0.0414-0.0187-0.0831-0.023-0.1253-0.0489-0.4745 0.1916-0.7812 0.661-0.8098 0.2245-0.0138 0.4517 0.0195 0.701 0.0327 0.0018-0.0479 0.0059-0.117 0.0069-0.1863 0.0014-0.0973 0.0012-0.1945 4e-4 -0.2918-8e-4 -0.0941 0.0438-0.1161 0.1372-0.0808zm18.337 0.0828v0.2892l-0.1715-1e-4c-0.198-0.0016-0.3965-0.0126-0.5939-0.0033-0.2203 0.0103-0.4246 0.0811-0.5114 0.3081-0.0924 0.2421-0.0911 0.4916 0.0534 0.7192 0.08 0.1261 0.2086 0.1934 0.3523 0.1894 0.2389-0.0067 0.4774-0.0333 0.7158-0.0539 0.0586-5e-3 0.1164-0.0192 0.1881-0.0315v0.3085c-0.1325 0.0244-0.2705 0.0612-0.4107 0.073-0.2146 0.018-0.4321 0.0383-0.6457 0.0222-0.3949-0.0298-0.6499-0.292-0.6944-0.6903-0.0141-0.1261-0.0168-0.256-0.0055-0.3822 0.0351-0.3917 0.2587-0.65 0.6335-0.7478 0.2312-0.0603 0.8241-0.063 1.09-5e-4zm6.7296 0.4415v0.2781c-0.2013 0.0252-0.4061 0.0508-0.6293 0.0787v0.987c-0.0663 0.0066-0.1016 0.0122-0.1372 0.0131-0.0655 0.0016-0.131 4e-4 -0.1933 4e-4 -0.0422-0.1363-0.0515-1.0851-0.0137-1.3214 0.0983 0.0065 0.2003-0.05 0.2963 0.0448 0.0213 0.021 0.0894-5e-4 0.1339-0.0112 0.1741-0.0425 0.3468-0.0936 0.5433-0.0695zm-32.753 0.0278c0.0809 6e-4 0.0951 0.0604 0.1195 0.1145l0.3581 0.7969c0.027 0.06 0.0567 0.1187 0.0963 0.2011 0.0321-0.0598 0.0577-0.0981 0.0743-0.1399 0.1139-0.2877 0.2278-0.5756 0.3378-0.8649 0.0331-0.0871 0.0766-0.1356 0.1828-0.0877-0.0146 0.0446-0.0267 0.0896-0.0441 0.1325-0.1384 0.3434-0.2777 0.6864-0.4169 1.0295-0.0022 0.0055-5e-3 0.0109-0.0075 0.0165-0.0262 0.0587-0.0338 0.1324-0.1256 0.1303-0.0803-0.0018-0.0937-0.0658-0.1183-0.1187-0.125-0.2696-0.248-0.5403-0.3725-0.8101-0.0248-0.0537-0.0531-0.1057-0.093-0.1845-0.0826 0.1798-0.1532 0.3325-0.223 0.4857-0.0828 0.1822-0.1618 0.3664-0.2497 0.5461-0.0173 0.0354-0.0682 0.0752-0.103 0.0746-0.0342-4e-4 -0.0806-0.0431-0.0988-0.0792-0.049-0.0971-0.0863-0.2004-0.1273-0.3016-0.1228-0.3035-0.2451-0.607-0.3709-0.9187 0.1146-0.0466 0.1619-0.0061 0.1964 0.0838l0.1537 0.3895 0.157 0.3882c0.0271 0.0672 0.0566 0.1333 0.0962 0.2259 0.0338-0.0549 0.0611-0.0897 0.0785-0.1291 0.1274-0.2887 0.2526-0.5783 0.3793-0.8672 0.0238-0.0542 0.0393-0.1141 0.1207-0.1135zm18.868-0.0319c0.0863-0.0069 0.1801 0.0169 0.2628 0.048 0.1525 0.0572 0.2549 0.177 0.2611 0.3415 0.0118 0.315 0.0034 0.6308 0.0034 0.9645h-0.3454c-0.0013-0.0956-0.0033-0.1846-0.0038-0.2735-7e-4 -0.1523 0.0025-0.3048-0.0013-0.457-0.0059-0.2323-0.1038-0.3369-0.3356-0.3291-0.1773 6e-3 -0.3537 0.0421-0.5494 0.0672v0.9908h-0.3534v-1.3064c0.1066-0.0058 0.208-0.0514 0.3056 0.0343 0.0223 0.0195 0.0765 6e-3 0.1152 0.0011 0.2137-0.0273 0.4265-0.0645 0.6408-0.0814zm10.604 7e-4c0.1043 0.0124 0.2113 0.0451 0.3052 0.0927 0.1063 0.054 0.1748 0.1606 0.178 0.2807 0.0086 0.3208 3e-3 0.6419 3e-3 0.9752h-0.3477v-0.1973c-5e-4 -0.1887 4e-3 -0.3777-0.0032-0.5662-7e-3 -0.1846-0.0985-0.2773-0.28-0.292-0.1998-0.0164-0.3909 0.0335-0.5969 0.0832v0.9675h-0.3556v-1.3008c0.1072-0.0011 0.2076-0.0497 0.3056 0.0389 0.0239 0.0217 0.0892 0.0039 0.1333-0.0061 0.2171-0.0488 0.4349-0.1023 0.6583-0.0758zm-25.291 0.0095v0.1029c-0.2129 0.0386-0.4176 0.0755-0.6393 0.1154v1.121h-0.1418v-1.2978c0.0156-0.0062 0.0319-0.0178 0.0368-0.014 0.0662 0.0505 0.1328 0.0521 0.1999 0.04l0.1347-0.0324c0.1333-0.0297 0.2668-0.07 0.4097-0.0351zm31.134-0.5414v1.8763h-0.338v-1.8763h0.338zm-21.627 0.0856c0.3242 3e-4 0.6486-0.0023 0.9727 0.0068 0.1123 0.0032 0.227 0.026 0.3348 0.0591 0.1631 0.0499 0.2638 0.1668 0.2818 0.3432 0.0173 0.1692-0.0289 0.3136-0.1789 0.4096-0.02 0.0129-0.0394 0.0267-0.084 0.0572 0.0466 0.0232 0.0716 0.0379 0.0983 0.0484 0.1779 0.07 0.2608 0.2017 0.2613 0.3949 5e-4 0.2019-0.0939 0.3351-0.274 0.4078-0.0664 0.0268-0.1374 0.0578-0.2067 0.0586-0.4313 0.0054-0.8628 0.0028-1.3073 0.0028v-1.772c0.0346-0.0058 0.0682-0.0164 0.102-0.0164zm-4.4008 0.6943v0.905c0.2477 0.1252 0.6825 0.1472 0.9184 0.0526 0.1898-0.0763 0.2755-0.2277 0.2894-0.4236 0.0153-0.2177 0-0.4296-0.202-0.5691-0.034-0.0234-0.0742-0.0431-0.1142-0.0512-0.3077-0.0628-0.6015 0.0019-0.8916 0.0863zm-14.065 8e-4v0.9048c0.1941 0.1004 0.4529 0.1327 0.7422 0.0953 0.3142-0.0407 0.4687-0.2128 0.4715-0.5357 7e-4 -0.0841-0.0113-0.1701-0.0308-0.252-0.0405-0.1703-0.1538-0.2796-0.3203-0.3078-0.2951-0.0502-0.5804 0.0105-0.8626 0.0954zm2.5205-0.1315-0.0023 0.0108c-0.0715 5e-3 -0.1437 0.0061-0.2147 0.0156-0.282 0.0374-0.4262 0.1966-0.4396 0.4827-0.0023 0.0484-0.0025 0.0973 0.0012 0.1456 0.0205 0.2635 0.162 0.4314 0.4201 0.4677 0.1465 0.0206 0.2987 0.0211 0.4462 0.0072 0.3053-0.0286 0.4474-0.1875 0.4601-0.4987 0.0032-0.0777-0.0086-0.1574-0.0236-0.2342-0.033-0.1693-0.135-0.2857-0.2965-0.3333-0.1134-0.0334-0.2336-0.0431-0.3509-0.0634zm8.9139 0.0618c-0.1781 0.0514-0.2848 0.1812-0.3052 0.3668-0.025 0.2259-0.037 0.456 0.1683 0.6168 0.0499 0.0392 0.1166 0.0683 0.1791 0.0773 0.2886 0.042 0.5672-0.0138 0.8436-0.0892v-0.9353c-0.296-0.0969-0.5895-0.1217-0.8858-0.0364zm9.6253 0.6207c-0.1254 0.0076-0.1737 0.0727-0.1716 0.1687 0.0022 0.0951 0.0584 0.1556 0.1767 0.1675 0.222 0.0225 0.439-0.0083 0.657-0.0758v-0.2639c-0.2347 0-0.449-0.0092-0.6621 0.0035zm17.136 2e-3c-0.0821 0.0178-0.1431 0.0603-0.145 0.1575-0.0017 0.0914 0.046 0.1579 0.15 0.1721 0.2327 0.0315 0.46 1e-4 0.6852-0.0747v-0.2511c-0.2407-0.019-0.4649-0.0527-0.6902-0.0038zm-11.486-0.5034c-0.103 0.029-0.1799 0.0937-0.2182 0.1993-0.1158 0.3187 0.0358 0.5791 0.3644 0.6239 0.0413 0.0057 0.0834 0.0062 0.1473 0.0107 0.0498-0.0077 0.1215-0.0145 0.1911-0.0306 0.1752-0.0406 0.2576-0.1345 0.2727-0.3131 0.0056-0.066 0.0042-0.1338-0.0038-0.1997-0.019-0.1555-0.11-0.2538-0.2563-0.2942-0.165-0.0456-0.3326-0.0425-0.4972 0.0037zm-7.9534 0.2994v0.4707c0.2287 0 0.4482 0.0012 0.6675-8e-4 0.0536-5e-4 0.1084-5e-3 0.16-0.0179 0.1167-0.029 0.1663-0.092 0.1695-0.2025 0.0036-0.1196-0.0472-0.198-0.1689-0.2212-0.2712-0.0516-0.5444-0.0257-0.8281-0.0283zm-12.013-0.4486c-0.2284 0.0368-0.3463 0.1849-0.3637 0.4314 0.3533 0.0455 1.0699 0.0263 1.1715-0.0291-0.0437-0.2717-0.1524-0.3861-0.416-0.4109-0.1295-0.012-0.2638-0.0119-0.3918 0.0086zm2.8951 0.0061c-0.2231 0.0348-0.3365 0.1962-0.3386 0.4299h1.1616c-0.0163-0.2553-0.1072-0.393-0.3234-0.4279-0.163-0.0264-0.3366-0.0274-0.4996-2e-3zm22.067 0.1007c-0.1248 0.0406-0.197 0.1274-0.2124 0.2838h0.8628c0.0047-0.1633-0.0388-0.2389-0.1722-0.282-0.1581-0.051-0.3195-0.0534-0.4782-0.0018zm-12.945-0.4182v0.4836c0.2536-0.0029 0.4929 0.0233 0.7296-0.0301 0.1202-0.027 0.1777-0.1066 0.175-0.2208-0.0026-0.1057-0.0571-0.1855-0.1691-0.207-0.2421-0.0466-0.4863-0.022-0.7355-0.0257zm-4.2942-19.179c1.3763 0.01232 2.4881 1.1327 2.4944 2.5292l0.0042 2.8162-0.0017 2.8161c0 1.8774 4e-4 3.7549-0.0014 5.6324 0 0.0962-0.0052 0.1969-0.0324 0.2878-0.0556 0.1858-0.2362 0.3095-0.4247 0.3107-0.194 0.0011-0.3803-0.1309-0.4331-0.3246-0.0251-0.0919-0.029-0.1922-0.029-0.2887l-0.0012-4.3157-1e-4 -4.3158c0-0.87162 0.0038-1.7434-0.0017-2.615-0.0045-0.71652-0.4539-1.3258-1.1275-1.5271-0.1531-0.04572-0.3184-0.06601-0.4785-0.06805-0.6006-0.00784-1.2014-0.00215-1.8021-0.00462-0.0831-4.3e-4 -0.1695-0.00622-0.2482-0.03037-0.1923-0.05915-0.3151-0.24206-0.3121-0.44354 0.0031-0.20116 0.1319-0.37699 0.3259-0.43356 0.0623-0.01825 0.1299-0.02533 0.195-0.02554 0.6247-0.00172 1.2496-0.00551 1.8742 1.8e-4zm16.962 7.7321c0.0892 0.0714 0.1703 0.1542 0.2509 0.236 1.4322 1.452 2.8653 2.9034 4.2945 4.3587 0.4938 0.5028 1.0749 0.836 1.7645 0.9602 0.2058 0.0371 0.4175 0.0512 0.6269 0.0546 0.4865 0.0078 0.9733 0.0044 1.46 0.0018 0.182-9e-4 0.3303 0.0606 0.4283 0.2193 0.0338 0.0548 0.0504 0.1203 0.0748 0.181v0.1463c-0.0117 0.0198-0.029 0.038-0.0343 0.0595-0.0449 0.1808-0.1663 0.2791-0.3389 0.3107-0.0935 0.0171-0.1911 0.0167-0.2869 0.016-0.5405-0.0036-1.0821 0.0099-1.6214-0.019-0.9916-0.0533-1.847-0.447-2.5747-1.1297l-0.1042-0.1011-0.1023-0.1032c-1.4232-1.444-2.8468-2.8875-4.2686-4.3331-0.1701-0.1727-0.3591-0.3015-0.6007-0.3438-0.3235-0.0567-0.6064 0.0283-0.854 0.2417-0.0548 0.0473-0.1039 0.1015-0.1549 0.1532-1.4318 1.4526-2.8649 2.9038-4.2946 4.3586-0.5557 0.5656-1.2059 0.9607-1.9699 1.1592-0.3035 0.0789-0.6119 0.1278-0.9256 0.1293-0.6548 0.0029-1.3096 9e-4 -1.9646 0.0033-0.1975 8e-4 -0.3521-0.0731-0.4466-0.2517-0.1445-0.2728 0.0143-0.6075 0.3156-0.6655 0.076-0.0146 0.1554-0.0151 0.2331-0.0153 0.5649-0.0013 1.1296-0.0033 1.6943-2e-4 0.9442 0.0051 1.744-0.3357 2.4104-1.0134 1.4512-1.476 2.9061-2.9481 4.3576-4.4239 0.2969-0.3019 0.6404-0.5116 1.0569-0.5866 0.5823-0.1051 1.1093 0.0246 1.5744 0.3971zm-9.0512-7.7257c0.9748 0.05157 1.8253 0.43983 2.5457 1.1122 0.1105 0.10315 0.2157 0.21211 0.322 0.31977 1.3979 1.418 2.796 2.8358 4.1925 4.2553 0.1702 0.173 0.3596 0.3008 0.6013 0.3427 0.3166 0.0549 0.5947-0.0274 0.8396-0.2326 0.0554-0.0465 0.1049-0.1003 0.1559-0.152 1.4277-1.4483 2.8568-2.8948 4.2815-4.346 0.5783-0.5891 1.2565-0.9926 2.0545-1.1866 0.3172-0.07707 0.6397-0.10959 0.9646-0.11238 0.4867-0.00419 0.9733-2.2e-4 1.46-0.00183 0.1772-5.3e-4 0.3359 0.04101 0.4421 0.19633 0.0394 0.05753 0.0615 0.12709 0.0914 0.19118v0.14631c-0.0098 0.01471-0.0241 0.02812-0.0289 0.04444-0.0705 0.24152-0.207 0.3522-0.4564 0.35391-0.4626 0.00311-0.9254 0.0073-1.3879-2.2e-4 -0.9915-0.01599-1.8225 0.34178-2.5207 1.0563-1.4256 1.4587-2.8624 2.9063-4.2925 4.3606-0.2967 0.3018-0.6383 0.5145-1.0545 0.5914-0.5961 0.11-1.1326-0.0256-1.6042-0.4126-0.0838-0.0688-0.1602-0.1474-0.2366-0.2249-1.4406-1.461-2.8816-2.9213-4.3204-4.3842-0.4666-0.47457-1.0155-0.79713-1.6641-0.92733-0.2339-0.04702-0.4763-0.06494-0.7153-0.06892-0.5707-0.00966-1.1415-0.00289-1.7123-0.00365-0.0659-1e-4 -0.1326-3.2e-4 -0.1977-0.00944-0.2498-0.0351-0.4098-0.22897-0.3998-0.4795 0.0095-0.24474 0.1913-0.43871 0.4417-0.44011 0.733-0.00407 1.4674-0.02702 2.1985 0.01173zm-5.7684-4.0398c0.2115 0.09887 0.3599 0.27523 0.52 0.43689 0.1958 0.19784 0.3926 0.3946 0.5856 0.59522 0.2543 0.26427 0.257 0.57932 0.0044 0.84156-0.2729 0.28318-0.5485 0.56377-0.828 0.84039-0.2533 0.25064-0.5638 0.25032-0.8171-4.3e-4 -0.2793-0.27662-0.5551-0.55722-0.8281-0.84028-0.2527-0.26203-0.2505-0.57718 5e-3 -0.84125 0.2693-0.27834 0.54-0.5555 0.8171-0.82558 0.084-0.08179 0.1918-0.13836 0.2888-0.20652h0.2523z" fill="#9C9B9B"/>
<path d="m25.523 21.29c-0.1202-0.1227-0.2565-0.2131-0.4258-0.2488-0.3362-0.0706-0.6038 0.0439-0.842 0.2868-1.2508 1.276-2.5066 2.547-3.7609 3.8195-0.2304 0.2336-0.456 0.4726-0.6946 0.6973-0.7249 0.6824-1.5796 1.0788-2.5682 1.1558-0.3385 0.0263-0.6797 0.0189-1.0195 0.0288-0.0519 0.0016-0.1034 0.0131-0.155 0.0201l-0.0267 0.0533c0.0634 0.0494 0.1331 0.0923 0.1892 0.1491 1.1121 1.126 2.2223 2.2536 3.3334 3.3806 0.6964 0.7062 1.3878 1.4175 2.0919 2.1157 0.6159 0.6109 1.3555 0.9944 2.2005 1.167l0.4013 0.0847h0.9991c0.0398-0.0141 0.0787-0.0353 0.1197-0.0415 0.9618-0.1448 1.7957-0.5579 2.484-1.2528 1.8318-1.8499 3.6568-3.7068 5.4837-5.5619 0.0322-0.0326 0.0556-0.0738 0.1038-0.1391-0.0914 0-0.1478 0.0031-0.2039-6e-4 -0.3675-0.024-0.7405-0.0175-1.1014-0.0811-0.8969-0.1581-1.653-0.5997-2.2942-1.253-1.1136-1.1349-2.2312-2.2655-3.3471-3.3979l-0.4841-0.4905-0.4832-0.4915z" fill="#37B4AA"/>
<path d="m15.092 12.501c-0.0795-1e-4 -0.1628 0.0087-0.2376-0.0119-0.1015-0.028-0.1612 0.0136-0.2269 0.0805-1.1192 1.139-2.2464 2.2697-3.357 3.417-0.6694 0.6915-1.0557 1.5335-1.1901 2.4945-0.0127 0.0919-0.0529 0.1798-0.0803 0.2696v0.7052c0.0352 0.1478 0.0766 0.2945 0.1044 0.4436 0.1772 0.9522 0.6065 1.7659 1.2835 2.4496 1.0312 1.0414 2.061 2.0842 3.0832 3.1343 0.1616 0.1661 0.3105 0.2449 0.5557 0.232 0.5774-0.0308 1.1574-0.0104 1.7365-0.01 0.8906 6e-4 1.6519-0.3126 2.2813-0.9569 0.6317-0.6465 1.2686-1.2883 1.9031-1.9321l2.4257-2.4618c0.4259-0.4332 0.9405-0.6439 1.5417-0.643 0.6101 9e-4 1.1237 0.2269 1.5546 0.6656 1.4258 1.4514 2.8569 2.8968 4.2822 4.3481 0.6244 0.636 1.371 0.9621 2.257 0.9583 0.4415-0.0019 0.8831-1e-3 1.3245 7e-4 0.0865 1e-4 0.1757-0.0018 0.2588 0.0181 0.1057 0.0252 0.1754-0.0078 0.2482-0.0832 0.2884-0.2993 0.5823-0.593 0.8739-0.8892 0.8184-0.8313 1.6517-1.6484 2.4513-2.498 1.027-1.0913 1.4093-2.4067 1.1792-3.8926-0.1494-0.9647-0.5948-1.7853-1.277-2.4752-1.056-1.0679-2.1106-2.1374-3.1612-3.2109-0.1163-0.1189-0.2237-0.1948-0.3948-0.1364-0.0589 0.0201-0.1293 0.0064-0.1943 0.0065-0.4199 3e-4 -0.8396-0.0036-1.2593 0.0019-0.195 0.0025-0.392 0.0075-0.5838 0.0383-0.6645 0.1067-1.2278 0.4147-1.7031 0.8982-1.4155 1.4406-2.8341 2.8779-4.2523 4.3159-0.0869 0.0881-0.1738 0.1777-0.2695 0.2553-0.4625 0.3753-0.9883 0.5364-1.5798 0.4693-0.5178-0.0589-0.9462-0.2926-1.312-0.6647l-4.3287-4.3943c-0.6199-0.6298-1.3694-0.9387-2.2437-0.9414-0.5643-0.0018-1.1289-1e-4 -1.6934-9e-4z" fill="#37B4AA"/>
<path d="m27.883 5.5301-0.134-0.12865c-1.1161-1.0092-2.412-1.3853-3.882-1.1132-0.9178 0.16984-1.6915 0.62021-2.3489 1.2889-1.7688 1.7992-3.541 3.595-5.313 5.391-0.051 0.0516-0.1152 0.0898-0.1734 0.1341l0.0352 0.0747c0.2069 0 0.4146-0.0113 0.6208 0.0024 0.353 0.0233 0.7107 0.0328 1.0563 0.1005 0.8628 0.169 1.5918 0.6002 2.2115 1.2309l2.8369 2.8759 1.4103 1.4459c0.4375 0.453 0.9633 0.4644 1.4101 0.0017 1.3879-1.4375 2.8002-2.8508 4.2013-4.2751 0.2879-0.2926 0.5981-0.5553 0.9513-0.7626 0.6452-0.379 1.3391-0.5846 2.0868-0.593l0.5545-3e-4 0.018-0.0454-0.1599-0.1664c-1.7504-1.7764-3.5007-3.5526-5.2513-5.3287l-0.1305-0.13269z" fill="#37B4AA"/>
<rect x="45" y="28" width="45" height="10" rx="2" fill="#37B4AA"/>
<path d="m53.12 36c-0.0507 0-0.0811-0.0253-0.0912-0.076l-0.4408-2.014c-0.0101-0.0203-0.0228-0.0304-0.038-0.0304h-0.2964c-0.0101 0-0.0203 0.0051-0.0304 0.0152-0.0051 0.0051-0.0076 0.0127-0.0076 0.0228l-0.2432 1.9912c-0.0051 0.0253-0.0177 0.0481-0.038 0.0684-0.0152 0.0152-0.0355 0.0228-0.0608 0.0228h-1.0488c-0.0253 0-0.0456-0.0076-0.0608-0.0228-0.0152-0.0203-0.0203-0.0431-0.0152-0.0684l0.6308-5.1376c0.0051-0.0253 0.0152-0.0456 0.0304-0.0608 0.0203-0.0203 0.0431-0.0304 0.0684-0.0304h1.8848c0.4155 0 0.7448 0.1267 0.988 0.38 0.2432 0.2483 0.3648 0.5827 0.3648 1.0032 0 0.1165-0.0051 0.2052-0.0152 0.266-0.0355 0.3141-0.1343 0.5928-0.2964 0.836-0.1621 0.2381-0.3699 0.418-0.6232 0.5396-0.0152 0.0051-0.0228 0.0203-0.0228 0.0456l0.5472 2.1432v0.0228c0 0.0557-0.0304 0.0836-0.0912 0.0836h-1.0944zm-0.6004-4.2408c-0.0203 0-0.0355 0.0127-0.0456 0.038l-0.1292 1.0792c-0.0101 0.0253 0 0.038 0.0304 0.038h0.5168c0.1723 0 0.3141-0.0608 0.4256-0.1824 0.1165-0.1267 0.1748-0.2913 0.1748-0.494 0-0.1469-0.0431-0.2635-0.1292-0.3496-0.0811-0.0861-0.19-0.1292-0.3268-0.1292h-0.5168z" fill="#fff"/>
<path d="m59.916 36c-0.0557 0-0.0836-0.0279-0.0836-0.0836l-0.0684-0.6688c-5e-3 -0.0203-0.0152-0.0304-0.0304-0.0304h-1.2388c-0.0152 0-0.0304 0.0101-0.0456 0.0304l-0.2356 0.6764c-0.0202 0.0507-0.0557 0.076-0.1064 0.076h-1.0792c-0.0709 0-0.0912-0.0329-0.0608-0.0988l1.9456-5.1452c0.0203-0.0507 0.0583-0.076 0.114-0.076h1.292c0.0558 0 0.0862 0.0253 0.0912 0.076l0.6916 5.1452v0.0152c0 0.0557-0.0304 0.0836-0.0912 0.0836h-1.0944zm-1.1096-1.8012c-5e-3 0.0152-5e-3 0.0279 0 0.038 0.0102 0.0051 0.0203 0.0076 0.0304 0.0076h0.7904c0.0304 0 0.0456-0.0127 0.0456-0.038l-0.1748-1.862c0-0.0203-5e-3 -0.0304-0.0152-0.0304-0.0101 0-0.0177 0.0101-0.0228 0.0304l-0.6536 1.8544zm0.2812-3.9368c-0.0456 0-0.0684-0.0152-0.0684-0.0456 0-0.0203 0.0076-0.0405 0.0228-0.0608l0.5092-0.7676c0.0102-0.0203 0.0254-0.0355 0.0456-0.0456 0.0254-0.0101 0.0482-0.0152 0.0684-0.0152h0.9804c0.0456 0 0.0684 0.0152 0.0684 0.0456 0 0.0253-0.0101 0.0481-0.0304 0.0684l-0.6536 0.7676c-0.0304 0.0355-0.0658 0.0532-0.1064 0.0532h-0.836z" fill="#fff"/>
<path d="m66.421 30.68c0.4256 0 0.7625 0.1267 1.0108 0.38s0.3724 0.5953 0.3724 1.026c0 0.0608-0.0051 0.152-0.0152 0.2736-0.0608 0.4915-0.2533 0.8867-0.5776 1.1856s-0.722 0.4484-1.1932 0.4484h-0.6916c-0.0203 0-0.0355 0.0127-0.0456 0.038l-0.228 1.8772c-0.0051 0.0253-0.0177 0.0481-0.038 0.0684-0.0152 0.0152-0.0355 0.0228-0.0608 0.0228h-1.0488c-0.0253 0-0.0456-0.0076-0.0608-0.0228-0.0152-0.0203-0.0203-0.0431-0.0152-0.0684l0.6308-5.1376c0.0051-0.0253 0.0152-0.0456 0.0304-0.0608 0.0203-0.0203 0.0431-0.0304 0.0684-0.0304h1.862zm-0.4864 2.318c0.1824 0 0.3344-0.0659 0.456-0.1976s0.1824-0.3091 0.1824-0.532c0-0.1571-0.0456-0.2812-0.1368-0.3724-0.0861-0.0912-0.2027-0.1368-0.3496-0.1368h-0.4864c-0.0203 0-0.0355 0.0127-0.0456 0.038l-0.1368 1.1628c-0.0101 0.0253 0 0.038 0.0304 0.038h0.4864z" fill="#fff"/>
<path d="m70.156 36c-0.0253 0-0.0456-0.0076-0.0608-0.0228-0.0152-0.0203-0.0202-0.0431-0.0152-0.0684l0.6308-5.1376c0.0051-0.0253 0.0152-0.0456 0.0304-0.0608 0.0203-0.0203 0.0431-0.0304 0.0684-0.0304h1.0488c0.0254 0 0.0456 0.0101 0.0608 0.0304 0.0152 0.0152 0.0203 0.0355 0.0152 0.0608l-0.6308 5.1376c-5e-3 0.0253-0.0177 0.0481-0.038 0.0684-0.0152 0.0152-0.0354 0.0228-0.0608 0.0228h-1.0488z" fill="#fff"/>
<path d="m74.284 36c-0.0254 0-0.0456-0.0076-0.0608-0.0228-0.0152-0.0203-0.0203-0.0431-0.0152-0.0684l0.6308-5.1376c5e-3 -0.0253 0.0152-0.0456 0.0304-0.0608 0.0202-0.0203 0.043-0.0304 0.0684-0.0304h1.6416c0.4864 0 0.8714 0.1241 1.1552 0.3724 0.2837 0.2432 0.4256 0.5725 0.4256 0.988 0 0.0456-0.0051 0.1191-0.0152 0.2204l-0.266 2.1584c-0.0406 0.3141-0.1495 0.5903-0.3268 0.8284-0.1723 0.2381-0.4003 0.4231-0.684 0.5548-0.2787 0.1317-0.5928 0.1976-0.9424 0.1976h-1.6416zm1.2692-1.1172c0 0.0253 0.0126 0.038 0.038 0.038l0.4864-0.0076c0.1469 0 0.2736-0.0583 0.38-0.1748 0.1114-0.1165 0.1824-0.2736 0.2128-0.4712l0.228-1.862c5e-3 -0.0253 0.0076-0.0659 0.0076-0.1216 0-0.1621-0.0406-0.2888-0.1216-0.38-0.076-0.0963-0.185-0.1444-0.3268-0.1444h-0.4788c-0.0203 0-0.0355 0.0127-0.0456 0.038l-0.38 3.0856z" fill="#fff"/>
<path d="m82.235 36.076c-0.4864 0-0.874-0.1368-1.1628-0.4104-0.2837-0.2736-0.4256-0.6384-0.4256-1.0944 0-0.0608 0.0051-0.152 0.0152-0.2736l0.2356-1.9152c0.0406-0.3496 0.152-0.6561 0.3344-0.9196 0.1824-0.2685 0.418-0.4763 0.7068-0.6232s0.6106-0.2204 0.9652-0.2204c0.4915 0 0.8791 0.1368 1.1628 0.4104 0.2888 0.2685 0.4332 0.6308 0.4332 1.0868 0 0.0557-5e-3 0.1444-0.0152 0.266l-0.2356 1.9152c-0.0456 0.3547-0.1596 0.6663-0.342 0.9348s-0.418 0.4763-0.7068 0.6232-0.6105 0.2204-0.9652 0.2204zm0.1368-1.0868c0.1672 0 0.3116-0.0583 0.4332-0.1748 0.1216-0.1216 0.1926-0.2787 0.2128-0.4712l0.2432-1.9912c0.0051-0.0253 0.0076-0.0608 0.0076-0.1064 0-0.1621-0.0456-0.2939-0.1368-0.3952-0.0861-0.1013-0.2052-0.152-0.3572-0.152-0.1722 0-0.3166 0.0608-0.4332 0.1824-0.1165 0.1165-0.1874 0.2736-0.2128 0.4712l-0.2508 1.9912c-5e-3 0.0253-0.0076 0.0633-0.0076 0.114 0 0.1621 0.0456 0.2913 0.1368 0.3876s0.2128 0.1444 0.3648 0.1444z" fill="#fff"/>
</svg>
